<svg width="111" height="71" viewBox="0 0 111 71" fill="none" xmlns="http://www.w3.org/2000/svg">
<path d="M6.85979 37.1601C5.95445 37.0294 5.13312 36.9641 4.39579 36.9641C3.65845 36.9641 3.10779 37.1927 2.74379 37.6501C2.37979 38.1074 2.19312 38.7467 2.18379 39.5681L2.50579 39.4561C3.17779 39.2414 3.74245 39.1341 4.19979 39.1341C6.29045 39.1341 7.33579 40.1141 7.33579 42.0741C7.33579 43.0821 7.04645 43.8474 6.46779 44.3701C5.88912 44.8927 5.04445 45.1541 3.93379 45.1541C2.82312 45.1541 1.98312 44.7434 1.41379 43.9221C0.853786 43.0914 0.573786 41.9107 0.573786 40.3801C0.573786 37.1974 1.82445 35.6061 4.32579 35.6061C5.02579 35.6061 5.78179 35.6901 6.59379 35.8581L6.99979 35.9421L6.85979 37.1601ZM2.43579 40.8141L2.16979 40.9121C2.18845 42.8347 2.80445 43.7961 4.01779 43.7961C4.56845 43.7961 4.98845 43.6467 5.27779 43.3481C5.57645 43.0494 5.72579 42.6341 5.72579 42.1021C5.72579 41.5701 5.58112 41.1734 5.29179 40.9121C5.00245 40.6414 4.59645 40.5061 4.07379 40.5061C3.56045 40.5061 3.01445 40.6087 2.43579 40.8141ZM10.5918 39.3021V45.0001H9.07977V39.3021H8.26777V38.0001H9.07977V37.5521C9.07977 36.5534 9.22444 35.8674 9.51377 35.4941C9.8031 35.1207 10.3164 34.9341 11.0538 34.9341L12.5658 35.0741L12.5518 36.3201C12.0944 36.3014 11.7118 36.2921 11.4038 36.2921C11.1051 36.2921 10.8951 36.3854 10.7738 36.5721C10.6524 36.7494 10.5918 37.0807 10.5918 37.5661V38.0001H12.4398V39.3021H10.5918ZM17.3636 39.3021H15.4316V42.3821C15.4316 42.9514 15.4736 43.3294 15.5576 43.5161C15.6416 43.7027 15.8563 43.7961 16.2016 43.7961L17.3496 43.7541L17.4196 44.9721C16.7943 45.0934 16.3183 45.1541 15.9916 45.1541C15.1983 45.1541 14.6523 44.9721 14.3536 44.6081C14.0643 44.2441 13.9196 43.5581 13.9196 42.5501V39.3021H13.0236V38.0001H13.9196V35.9701H15.4316V38.0001H17.3636V39.3021Z" fill="#828282"/>
<line x1="22.2804" y1="25.7196" x2="26.7996" y2="25.7196" stroke="#828282" stroke-width="0.560702" stroke-linecap="round"/>
<line x1="22.2804" y1="58.0341" x2="26.7996" y2="58.0341" stroke="#828282" stroke-width="0.560702" stroke-linecap="round"/>
<line x1="24.2804" y1="26.2804" x2="24.2803" y2="57.7197" stroke="#828282" stroke-width="0.560702" stroke-linecap="square"/>
<line x1="75.2805" y1="16.1583" x2="75.2805" y2="21.091" stroke="#828282" stroke-width="0.560702" stroke-linecap="round"/>
<line x1="32.2854" y1="16.1593" x2="32.2854" y2="21.092" stroke="#828282" stroke-width="0.560702" stroke-linecap="round"/>
<line x1="74.7198" y1="18.5128" x2="32.2804" y2="18.5128" stroke="#828282" stroke-width="0.560702" stroke-linecap="square"/>
<path d="M47.67 4.76V14H46.116V6.524L43.946 7.924L43.232 6.762L46.242 4.76H47.67ZM51.122 5.74C51.71 4.984 52.5873 4.606 53.754 4.606C54.9207 4.606 55.7933 4.97933 56.372 5.726C56.9507 6.47267 57.24 7.70933 57.24 9.436C57.24 11.1533 56.946 12.3713 56.358 13.09C55.7793 13.7993 54.9067 14.154 53.74 14.154C52.5827 14.154 51.71 13.7993 51.122 13.09C50.5433 12.3807 50.254 11.1673 50.254 9.45C50.254 7.72333 50.5433 6.48667 51.122 5.74ZM55.196 6.734C54.9067 6.22067 54.426 5.964 53.754 5.964C53.082 5.964 52.5967 6.22067 52.298 6.734C52.0087 7.238 51.864 8.12933 51.864 9.408C51.864 10.6867 52.0133 11.5733 52.312 12.068C52.62 12.5533 53.1007 12.796 53.754 12.796C54.4167 12.796 54.8927 12.5533 55.182 12.068C55.4807 11.5733 55.63 10.6867 55.63 9.408C55.63 8.12933 55.4853 7.238 55.196 6.734ZM60.426 8.302V14H58.914V8.302H58.102V7H58.914V6.552C58.914 5.55333 59.0586 4.86733 59.348 4.494C59.6373 4.12067 60.1506 3.934 60.888 3.934L62.4 4.074L62.386 5.32C61.9286 5.30133 61.546 5.292 61.238 5.292C60.9393 5.292 60.7293 5.38533 60.608 5.572C60.4866 5.74933 60.426 6.08067 60.426 6.566V7H62.274V8.302H60.426ZM67.1978 8.302H65.2658V11.382C65.2658 11.9513 65.3078 12.3293 65.3918 12.516C65.4758 12.7027 65.6905 12.796 66.0358 12.796L67.1838 12.754L67.2538 13.972C66.6285 14.0933 66.1525 14.154 65.8258 14.154C65.0325 14.154 64.4865 13.972 64.1878 13.608C63.8985 13.244 63.7538 12.558 63.7538 11.55V8.302H62.8578V7H63.7538V4.97H65.2658V7H67.1978V8.302Z" fill="#828282"/>
<path d="M25.8086 69.8066H109.635" stroke="#1F1F31" stroke-width="0.660627" stroke-linecap="round" stroke-linejoin="round"/>
<path d="M74.3265 64.043H77.9453V32.4756H74.3265V64.043Z" fill="#1F1F31"/>
<path d="M74.7648 32.4766H33.1296C32.53 32.4766 32.0439 32.8507 32.0439 33.3121V57.7344C32.0439 58.1959 32.53 58.57 33.1296 58.57H74.7648C75.3644 58.57 75.8504 58.1959 75.8504 57.7344V33.3121C75.8504 32.8507 75.3644 32.4766 74.7648 32.4766Z" fill="white" stroke="#1F1F31" stroke-width="0.660627" stroke-miterlimit="10"/>
<path d="M74.7648 32.4766H33.1296C32.53 32.4766 32.0439 32.3837 32.0439 32.2692V26.2082C32.0439 26.0937 32.53 26.0008 33.1296 26.0008H74.7648C75.3644 26.0008 75.8504 26.0937 75.8504 26.2082V32.2692C75.8504 32.3837 75.3644 32.4766 74.7648 32.4766Z" stroke="#1F1F31" stroke-width="0.660627" stroke-miterlimit="10"/>
<path d="M42.7092 26.2861V32.4762" stroke="#1F1F31" stroke-width="0.660627"/>
<path d="M54.041 26V32.19" stroke="#1F1F31" stroke-width="0.660627"/>
<path d="M65.3761 26.0947V32.2848" stroke="#1F1F31" stroke-width="0.660627"/>
<path d="M36.3245 36.9954H71.7589C72.1527 36.9954 72.472 37.3147 72.472 37.7085V51.4301C72.472 51.824 72.1527 52.1432 71.7589 52.1432H36.3245C35.9307 52.1432 35.6114 51.824 35.6114 51.4301V37.7085C35.6114 37.3147 35.9307 36.9954 36.3245 36.9954Z" stroke="#1F1F31" stroke-width="0.660627"/>
<path d="M41.3179 58.7588H36.2897C35.9425 58.7588 35.6611 59.2749 35.6611 59.9116V61.9866C35.6611 62.6233 35.9425 63.1394 36.2897 63.1394H41.3179C41.665 63.1394 41.9464 62.6233 41.9464 61.9866V59.9116C41.9464 59.2749 41.665 58.7588 41.3179 58.7588Z" fill="#9499A3" stroke="#1F1F31" stroke-width="0.660627" stroke-miterlimit="10"/>
<path d="M99.4669 58.5693V64.0928H39.13C38.1618 64.0928 37.376 63.2395 37.376 62.1881V58.5693H99.4669Z" fill="#1F1F31"/>
<path d="M106.133 61.2431C106.133 62.2405 105.965 63.2007 105.655 64.0929H88.8982C88.5882 63.2007 88.4199 62.2405 88.4199 61.2431C88.4199 59.9958 88.6834 58.8098 89.1594 57.7357C90.5256 54.6382 93.6453 52.4746 97.2765 52.4746C100.908 52.4746 104.027 54.6382 105.393 57.7357C105.87 58.8098 106.133 59.9958 106.133 61.2431Z" fill="#1F1F31"/>
<path d="M97.9405 69.8057C101.096 69.8057 103.654 67.2475 103.654 64.0918C103.654 60.9361 101.096 58.3779 97.9405 58.3779C94.7848 58.3779 92.2266 60.9361 92.2266 64.0918C92.2266 67.2475 94.7848 69.8057 97.9405 69.8057Z" fill="#1F1F31"/>
<path d="M97.9163 66.8893C99.4352 66.8893 100.667 65.6579 100.667 64.139C100.667 62.62 99.4352 61.3887 97.9163 61.3887C96.3974 61.3887 95.166 62.62 95.166 64.139C95.166 65.6579 96.3974 66.8893 97.9163 66.8893Z" fill="#707582"/>
<path d="M97.9177 65.4099C98.6193 65.4099 99.1881 64.8411 99.1881 64.1395C99.1881 63.4379 98.6193 62.8691 97.9177 62.8691C97.2161 62.8691 96.6473 63.4379 96.6473 64.1395C96.6473 64.8411 97.2161 65.4099 97.9177 65.4099Z" fill="#1F1F31"/>
<path d="M96.2733 63.4247C96.4837 63.4247 96.6542 63.2542 96.6542 63.0438C96.6542 62.8334 96.4837 62.6629 96.2733 62.6629C96.0629 62.6629 95.8924 62.8334 95.8924 63.0438C95.8924 63.2542 96.0629 63.4247 96.2733 63.4247Z" fill="#1F1F31"/>
<path d="M99.5105 63.4247C99.7209 63.4247 99.8914 63.2542 99.8914 63.0438C99.8914 62.8334 99.7209 62.6629 99.5105 62.6629C99.3001 62.6629 99.1295 62.8334 99.1295 63.0438C99.1295 63.2542 99.3001 63.4247 99.5105 63.4247Z" fill="#1F1F31"/>
<path d="M96.2733 65.7101C96.4837 65.7101 96.6542 65.5395 96.6542 65.3291C96.6542 65.1188 96.4837 64.9482 96.2733 64.9482C96.0629 64.9482 95.8924 65.1188 95.8924 65.3291C95.8924 65.5395 96.0629 65.7101 96.2733 65.7101Z" fill="#1F1F31"/>
<path d="M99.5105 65.7101C99.7209 65.7101 99.8914 65.5395 99.8914 65.3291C99.8914 65.1188 99.7209 64.9482 99.5105 64.9482C99.3001 64.9482 99.1295 65.1188 99.1295 65.3291C99.1295 65.5395 99.3001 65.7101 99.5105 65.7101Z" fill="#1F1F31"/>
<path d="M53.3092 61.9963H42.0128C40.7786 61.9963 39.9901 60.6783 40.5768 59.5907L42.4109 56.1872C42.6947 55.6596 43.2471 55.3301 43.847 55.3301H51.4751C52.075 55.3301 52.6274 55.6596 52.9111 56.1872L54.7453 59.5907C55.3319 60.6783 54.5434 61.9963 53.3092 61.9963Z" fill="#1F1F31"/>
<path d="M101.181 58.3789H108.228V60.5994C108.228 62.5284 106.714 64.0928 104.851 64.0928H101.181V58.3789Z" fill="#1F1F31"/>
<path d="M47.6612 69.8057C50.8169 69.8057 53.375 67.2475 53.375 64.0918C53.375 60.9361 50.8169 58.3779 47.6612 58.3779C44.5055 58.3779 41.9473 60.9361 41.9473 64.0918C41.9473 67.2475 44.5055 69.8057 47.6612 69.8057Z" fill="#1F1F31"/>
<path d="M47.6388 66.8893C49.1577 66.8893 50.3891 65.6579 50.3891 64.139C50.3891 62.62 49.1577 61.3887 47.6388 61.3887C46.1199 61.3887 44.8885 62.62 44.8885 64.139C44.8885 65.6579 46.1199 66.8893 47.6388 66.8893Z" fill="#707582"/>
<path d="M47.6384 65.4099C48.34 65.4099 48.9088 64.8411 48.9088 64.1395C48.9088 63.4379 48.34 62.8691 47.6384 62.8691C46.9368 62.8691 46.368 63.4379 46.368 64.1395C46.368 64.8411 46.9368 65.4099 47.6384 65.4099Z" fill="#1F1F31"/>
<path d="M45.9971 63.4249C46.2075 63.4249 46.3781 63.2544 46.3781 63.044C46.3781 62.8336 46.2075 62.6631 45.9971 62.6631C45.7868 62.6631 45.6162 62.8336 45.6162 63.044C45.6162 63.2544 45.7868 63.4249 45.9971 63.4249Z" fill="#1F1F31"/>
<path d="M49.2345 63.4248C49.4449 63.4248 49.6154 63.2542 49.6154 63.0438C49.6154 62.8334 49.4449 62.6629 49.2345 62.6629C49.0241 62.6629 48.8536 62.8334 48.8536 63.0438C48.8536 63.2542 49.0241 63.4248 49.2345 63.4248Z" fill="#1F1F31"/>
<path d="M45.9974 65.71C46.2078 65.71 46.3783 65.5395 46.3783 65.3291C46.3783 65.1187 46.2078 64.9482 45.9974 64.9482C45.787 64.9482 45.6165 65.1187 45.6165 65.3291C45.6165 65.5395 45.787 65.71 45.9974 65.71Z" fill="#1F1F31"/>
<path d="M49.2347 65.71C49.4451 65.71 49.6157 65.5394 49.6157 65.329C49.6157 65.1187 49.4451 64.9481 49.2347 64.9481C49.0244 64.9481 48.8538 65.1187 48.8538 65.329C48.8538 65.5394 49.0244 65.71 49.2347 65.71Z" fill="#1F1F31"/>
<path d="M67.4876 58.7588H58.4978C57.8771 58.7588 57.374 59.2749 57.374 59.9116V61.9866C57.374 62.6233 57.8771 63.1394 58.4978 63.1394H67.4876C68.1082 63.1394 68.6113 62.6233 68.6113 61.9866V59.9116C68.6113 59.2749 68.1082 58.7588 67.4876 58.7588Z" fill="#9499A3"/>
<path d="M76.4209 32.2859V61.0897C76.4209 61.6153 76.8475 62.042 77.3732 62.042H89.5552C89.9133 62.042 90.2428 61.8401 90.4047 61.5201L92.7569 56.8842C93.2674 55.8786 94.1987 55.1491 95.2977 54.8958L97.6061 54.3625C98.2042 54.2254 98.8251 54.233 99.4193 54.3873L102.132 55.0901C103.109 55.3434 103.947 55.9757 104.459 56.8461L105.287 58.2537C105.459 58.5451 105.771 58.7222 106.108 58.7222H107.335C107.838 58.7222 108.255 58.3317 108.285 57.8289L108.763 50.1933C108.786 49.82 108.59 49.4676 108.259 49.2924L99.7031 44.7536C99.5488 44.6717 99.4212 44.5498 99.3317 44.4013L92.1131 32.3126C91.9474 32.0364 91.6541 31.8612 91.3303 31.8498L77.4094 31.3336C76.8685 31.3146 76.4209 31.7469 76.4209 32.2859Z" fill="white" stroke="#1F1F31" stroke-width="0.660627"/>
<path d="M83.0874 47.7129H80.8019C80.4863 47.7129 80.2305 47.9687 80.2305 48.2843V48.4747C80.2305 48.7903 80.4863 49.0461 80.8019 49.0461H83.0874C83.403 49.0461 83.6588 48.7903 83.6588 48.4747V48.2843C83.6588 47.9687 83.403 47.7129 83.0874 47.7129Z" fill="#1F1F31"/>
<path d="M102.134 50.7608H99.8485C99.5329 50.7608 99.2771 51.0166 99.2771 51.3322V51.5226C99.2771 51.8382 99.5329 52.094 99.8485 52.094H102.134C102.45 52.094 102.705 51.8382 102.705 51.5226V51.3322C102.705 51.0166 102.45 50.7608 102.134 50.7608Z" fill="#1F1F31"/>
<path d="M89.9744 34.9521H80.5122C79.9359 34.9521 79.4688 35.4193 79.4688 35.9956V41.7387C79.4688 42.2675 79.8644 42.7127 80.3896 42.7749L93.6144 44.3399C94.4445 44.4382 95.0474 43.5693 94.6648 42.8261L90.9021 35.518C90.7233 35.1705 90.3652 34.9521 89.9744 34.9521Z" fill="#9499A3" stroke="#1F1F31" stroke-width="0.660627"/>
<path d="M106.598 57.5949L105.516 53.3965C105.346 52.7361 105.845 52.0928 106.527 52.0928H108.088C108.683 52.0928 109.158 52.5893 109.131 53.1836L108.94 57.382C108.915 57.9393 108.455 58.3781 107.898 58.3781H107.608C107.132 58.3781 106.717 58.0559 106.598 57.5949Z" fill="#1F1F31" stroke="#1F1F31" stroke-width="0.626059"/>
<path d="M86.9614 43.6175L89.8297 40.2144C90.0719 39.9379 90.4939 39.9101 90.7704 40.1523C91.0469 40.3945 91.0747 40.8165 90.8325 41.093L88.4404 43.8236L86.9614 43.6175Z" fill="#1F1F31"/>
<path d="M94.4968 42.5703H93.5826C93.3617 42.5703 93.1826 42.7494 93.1826 42.9703V45.0273C93.1826 45.2482 93.3617 45.4273 93.5826 45.4273H94.4968C94.7177 45.4273 94.8968 45.2482 94.8968 45.0273V42.9703C94.8968 42.7494 94.7177 42.5703 94.4968 42.5703Z" fill="#1F1F31"/>
<path d="M92.4873 36.665H92.9534C93.7093 36.665 94.3248 38.553 94.3248 40.8819V43.073C94.3248 43.8447 94.1201 44.474 93.8691 44.474H91.733C91.482 44.474 91.2773 43.8447 91.2773 43.073V40.3904C91.2773 38.3371 91.8196 36.6696 92.4873 36.6696V36.665Z" fill="#1F1F31"/>
<path d="M81.7827 37.998C82.7541 37.998 83.5426 38.7866 83.5426 39.7579V42.5558C83.5426 42.8796 83.2798 43.1405 82.9579 43.1405H80.8152C80.4914 43.1405 80.2305 42.8777 80.2305 42.5558V39.5522C80.2305 38.6951 80.9276 37.998 81.7846 37.998H81.7827Z" fill="#1F1F31"/>
</svg>
